<svg width="250" height="100" viewBox="0 0 250 100" fill="none" xmlns="http://www.w3.org/2000/svg">
<g clip-path="url(#clip0_910_2)">
<path d="M49 32H52V33.1252V41V44V50V53V67.6236V69H49V67.6233V53V50V44V41V33.1252V32Z" fill="#0F006C"/>
<path d="M40 50H49H52H61V53H52H49H40V50Z" fill="#0F006C"/>
<path d="M38 41H49H52H63V44H52H49H38V41Z" fill="#0F006C"/>
<path d="M67 38H81V41H67V38Z" fill="#0F006C"/>
<path d="M67 44H79V47H67V44Z" fill="#0F006C"/>
<path d="M66 50H77V53H66V50Z" fill="#0F006C"/>
<path d="M34 38H20V41H34V38Z" fill="#0F006C"/>
<path d="M34 44H22V47H34V44Z" fill="#0F006C"/>
<path d="M35 50H24V53H35V50Z" fill="#0F006C"/>
<path fill-rule="evenodd" clip-rule="evenodd" d="M42.7617 31.435C45.6292 30.6791 48.6764 30 50.5 30C52.3236 30 55.3708 30.6791 58.2383 31.435C61.1719 32.2037 64.1292 33.1134 65.8682 33.6644C66.5953 33.8972 67.2399 34.3241 67.7279 34.8962C68.216 35.4682 68.5277 36.1621 68.6273 36.8983C70.2025 48.3706 66.5474 56.8729 62.1127 62.4976C60.2322 64.9038 57.9898 67.0226 55.4606 68.7834C54.5861 69.3927 53.6595 69.9285 52.6909 70.385C51.9509 70.7232 51.1554 71 50.5 71C49.8446 71 49.0517 70.7232 48.3091 70.385C47.3405 69.9286 46.4139 69.3928 45.5394 68.7834C43.0102 67.0226 40.7679 64.9037 38.8873 62.4976C34.4526 56.8729 30.7975 48.3706 32.3727 36.8983C32.4723 36.1621 32.784 35.4682 33.2721 34.8962C33.7601 34.3241 34.4047 33.8972 35.1318 33.6644C37.6562 32.8618 40.2003 32.1185 42.7617 31.435ZM49 33.1252C47.5532 33.33 45.7459 33.7605 44.0166 34.225C41.8705 34.8085 39.739 35.443 37.6239 36.1281C37.0148 36.3269 36.4747 36.6913 36.0658 37.1797C35.6569 37.668 35.3957 38.2604 35.3122 38.8888C33.9925 48.6822 37.0549 55.9403 40.7704 60.7419C42.3461 62.7958 44.2248 64.6046 46.3438 66.1078C47.0765 66.628 47.8529 67.0854 48.6644 67.475C48.7752 67.5264 48.8874 67.5762 49 67.6233V53H40V50H49V44H38V41H49V33.1252ZM52 33.1252C53.4468 33.33 55.2541 33.7605 56.9834 34.225C59.4413 34.8812 61.9191 35.6578 63.3761 36.1281C63.9852 36.3269 64.5253 36.6913 64.9342 37.1797C65.3431 37.668 65.6043 38.2604 65.6878 38.8888C67.0075 48.6822 63.9451 55.9403 60.2296 60.7419C58.654 62.7959 56.7753 64.6047 54.6562 66.1078C53.9235 66.628 53.1471 67.0853 52.3356 67.475C52.2249 67.5266 52.1127 67.5764 52 67.6236V53H61V50H52V44H63V41H52V33.1252Z" fill="#0F006C"/>
<path d="M127.016 37.664H123.012V35.2H133.924V37.664H130.316L120.108 66H115.224L103.784 37.664H100V35.2H113.508V37.664H109.284L117.204 58.212L118.48 62.392H118.656L119.976 58.124L127.016 37.664ZM150.365 59.884C150.365 60.5587 150.38 61.248 150.409 61.952C150.439 62.6267 150.483 63.2427 150.541 63.8H153.445V66H146.537L146.097 61.82H145.877C145.731 62.4067 145.452 62.9787 145.041 63.536C144.66 64.0933 144.161 64.592 143.545 65.032C142.959 65.472 142.255 65.824 141.433 66.088C140.612 66.352 139.703 66.484 138.705 66.484C137.708 66.484 136.784 66.3373 135.933 66.044C135.112 65.7507 134.393 65.34 133.777 64.812C133.161 64.284 132.677 63.6533 132.325 62.92C132.003 62.1573 131.841 61.3067 131.841 60.368C131.841 58.9307 132.135 57.7427 132.721 56.804C133.337 55.8653 134.232 55.132 135.405 54.604C136.579 54.0467 138.045 53.6507 139.805 53.416C141.565 53.1813 143.619 53.0493 145.965 53.02C146.024 52.5507 146.053 52.1107 146.053 51.7C146.053 51.26 146.053 50.8347 146.053 50.424C146.053 48.6053 145.745 47.2267 145.129 46.288C144.513 45.32 143.413 44.836 141.829 44.836C141.243 44.836 140.612 44.8653 139.937 44.924C139.263 44.9827 138.647 45.1587 138.089 45.452V49.5H134.129V44.616C135.185 44.0587 136.432 43.56 137.869 43.12C139.307 42.68 140.993 42.46 142.929 42.46C144.601 42.46 145.936 42.68 146.933 43.12C147.96 43.5307 148.737 44.088 149.265 44.792C149.823 45.4667 150.175 46.244 150.321 47.124C150.497 47.9747 150.585 48.8253 150.585 49.676C150.585 51.524 150.541 53.2987 150.453 55C150.395 56.672 150.365 58.3 150.365 59.884ZM140.729 63.536C141.433 63.536 142.064 63.4333 142.621 63.228C143.179 62.9933 143.663 62.7147 144.073 62.392C144.513 62.04 144.88 61.6587 145.173 61.248C145.496 60.8373 145.76 60.4413 145.965 60.06V54.824C144.059 54.824 142.504 54.956 141.301 55.22C140.128 55.4547 139.204 55.7773 138.529 56.188C137.855 56.5987 137.385 57.0973 137.121 57.684C136.887 58.2413 136.769 58.8427 136.769 59.488C136.769 60.808 137.121 61.82 137.825 62.524C138.529 63.1987 139.497 63.536 140.729 63.536ZM158.828 56.848C158.828 54.912 158.872 52.932 158.96 50.908C159.048 48.884 159.092 46.948 159.092 45.1H155.836V42.9H163.668C163.609 45.188 163.551 47.388 163.492 49.5C163.463 51.5827 163.448 53.7533 163.448 56.012C163.448 57.2147 163.507 58.2853 163.624 59.224C163.771 60.1333 164.02 60.9107 164.372 61.556C164.753 62.2013 165.267 62.6853 165.912 63.008C166.557 63.3307 167.379 63.492 168.376 63.492C169.843 63.492 171.075 63.0227 172.072 62.084C173.069 61.1453 173.832 59.884 174.36 58.3V45.1H171.148V42.9H178.98V63.8H182.236V66H174.888L174.58 60.984H174.36C174.213 61.6 173.92 62.2307 173.48 62.876C173.069 63.5213 172.541 64.108 171.896 64.636C171.251 65.164 170.503 65.604 169.652 65.956C168.801 66.2787 167.877 66.44 166.88 66.44C165.56 66.44 164.401 66.2933 163.404 66C162.407 65.736 161.571 65.2373 160.896 64.504C160.221 63.7707 159.708 62.788 159.356 61.556C159.004 60.324 158.828 58.7547 158.828 56.848ZM196.6 66H185.468V63.8H188.724V35.2H184.984V33H193.344V63.8H196.6V66ZM199.146 42.9H203.062V37.4H207.682V42.9H214.986V45.716H207.682V58.564C207.682 60.412 207.917 61.7173 208.386 62.48C208.856 63.2427 209.618 63.624 210.674 63.624C211.584 63.624 212.361 63.4627 213.006 63.14C213.681 62.8173 214.297 62.4653 214.854 62.084L215.954 63.8C215.69 64.064 215.324 64.3573 214.854 64.68C214.414 64.9733 213.901 65.252 213.314 65.516C212.728 65.78 212.068 66 211.334 66.176C210.63 66.352 209.897 66.44 209.134 66.44C207.169 66.44 205.658 65.9413 204.602 64.944C203.576 63.9173 203.062 62.2307 203.062 59.884V45.716H199.146V42.9Z" fill="#0F006C"/>
</g>
<defs>
<clipPath id="clip0_910_2">
<rect width="250" height="100" fill="white"/>
</clipPath>
</defs>
</svg>
